<?xml version="1.0" standalone="no"?>
<!DOCTYPE svg PUBLIC "-//W3C//DTD SVG 20010904//EN"
 "http://www.w3.org/TR/2001/REC-SVG-20010904/DTD/svg10.dtd">
<svg version="1.0" xmlns="http://www.w3.org/2000/svg"
 width="499.000000pt" height="499.000000pt" viewBox="0 0 499.000000 499.000000"
 preserveAspectRatio="xMidYMid meet">
<metadata>
Created by potrace 1.14, written by Peter Selinger 2001-2017
</metadata>
<g transform="translate(0.000000,499.000000) scale(0.100000,-0.100000)"
fill="#000000" stroke="none">
<path d="M2444 4351 c-21 -10 -78 -37 -126 -60 -48 -22 -94 -41 -103 -41 -8 0
-15 -4 -15 -10 0 -5 -3 -9 -7 -8 -5 1 -57 -14 -118 -34 -130 -43 -338 -94
-455 -112 -144 -22 -260 -35 -387 -41 -139 -7 -185 -23 -205 -69 -23 -54 -17
-990 8 -1146 102 -655 467 -1205 1024 -1542 155 -94 382 -210 420 -215 42 -6
83 11 220 87 36 20 92 51 125 69 74 40 147 83 160 93 6 5 54 39 107 77 53 38
114 84 135 103 65 57 196 191 238 243 22 28 42 52 45 55 38 35 183 265 240
380 63 126 135 312 133 340 0 3 4 16 9 30 12 31 54 228 62 290 14 107 19 282
20 687 l0 431 -27 36 c-31 40 -40 42 -192 51 -102 6 -250 21 -295 29 -14 2
-47 7 -75 11 -188 23 -532 121 -690 196 -34 16 -67 29 -73 29 -7 0 -12 5 -12
10 0 6 -7 10 -15 10 -9 0 -26 6 -38 14 -35 23 -71 25 -113 7z"/>
<path d="M2167 873 c-1 0 -56 -4 -122 -8 -66 -3 -160 -10 -209 -15 -49 -5 -92
-8 -95 -8 -3 1 -19 -1 -36 -5 -16 -4 -50 -9 -75 -12 -107 -11 -210 -49 -210
-76 0 -32 192 -77 405 -95 39 -3 81 -7 94 -9 102 -17 783 -24 986 -10 55 4
128 8 161 10 34 2 84 6 110 9 27 3 87 10 135 16 123 15 240 47 254 70 21 34
-72 67 -265 95 -25 4 -67 9 -95 11 -27 2 -70 5 -95 8 -145 14 -292 19 -598 20
-189 1 -344 0 -345 -1z"/>
</g>
</svg>
